<svg width="1920" height="1080" viewBox="0 0 1920 1080" fill="none" xmlns="http://www.w3.org/2000/svg">
<g clip-path="url(#clip0_468_2133)">
<rect width="1920" height="1080" fill="white"/>
<g filter="url(#filter0_f_468_2133)">
<path d="M195.295 1111.8C288.513 1216.39 297.984 1285.02 389.599 1266.32C417.774 1277.52 447.847 1291.01 476.624 1303.41C500.991 1313.91 523.625 1337.6 549.153 1341.72C602.594 1350.34 651.034 1339.05 704.817 1349.26C900.6 1386.44 1091.19 1339.3 1266.57 1293.91C1376.52 1265.46 1491.02 1230.65 1592.13 1178.57L1594.59 1177.3C1642.55 1152.61 1697.48 1124.32 1733.5 1076.23C1812.09 971.274 1884.26 827.001 1899.34 649.122C1919.12 415.926 1857.68 -44.5882 1675.17 16.3947C1584.24 46.7752 1436.53 124.372 1386.88 228.526C1363.26 278.083 1323.4 310.485 1291.19 346.025C1213.44 431.816 1126.39 580.036 1020.94 600.627C806.363 642.526 688.347 800.446 479.307 859.994C559.917 507.423 147.086 511.499 91.353 532.231C27.2338 556.083 4.55431 648.531 -16.8716 746.778C-20.1792 761.945 -10.7673 780.858 -4.90659 797.399C33.5206 905.858 129.236 1037.68 195.295 1111.8Z" fill="url(#paint0_linear_468_2133)"/>
</g>
</g>
<rect x="0.5" y="0.5" width="1919" height="1079" stroke="black"/>
<defs>
<filter id="filter0_f_468_2133" x="-1047.51" y="-1019.07" width="3980.35" height="3411.7" filterUnits="userSpaceOnUse" color-interpolation-filters="sRGB">
<feFlood flood-opacity="0" result="BackgroundImageFix"/>
<feBlend mode="normal" in="SourceGraphic" in2="BackgroundImageFix" result="shape"/>
<feGaussianBlur stdDeviation="514.976" result="effect1_foregroundBlur_468_2133"/>
</filter>
<linearGradient id="paint0_linear_468_2133" x1="1725.56" y1="76.5704" x2="-28.9788" y2="735.162" gradientUnits="userSpaceOnUse">
<stop stop-color="#75F0F8"/>
<stop offset="0.460924" stop-color="#90A0FF"/>
</linearGradient>
<clipPath id="clip0_468_2133">
<rect width="1920" height="1080" fill="white"/>
</clipPath>
</defs>
</svg>
