<svg width="3981" height="3413" viewBox="0 0 3981 3413" fill="none" xmlns="http://www.w3.org/2000/svg">
<g filter="url(#filter0_f_467_1326)">
<path d="M1243.3 2131.8C1336.51 2236.39 1345.98 2305.02 1437.6 2286.32C1465.77 2297.52 1495.85 2311.01 1524.62 2323.41C1548.99 2333.91 1571.63 2357.6 1597.15 2361.72C1650.59 2370.34 1699.03 2359.05 1752.82 2369.26C1948.6 2406.44 2139.19 2359.3 2314.57 2313.91C2424.52 2285.46 2539.02 2250.65 2640.13 2198.57L2642.59 2197.3C2690.55 2172.61 2745.48 2144.32 2781.5 2096.23C2860.09 1991.27 2932.26 1847 2947.34 1669.12C2967.12 1435.93 2905.68 975.412 2723.17 1036.39C2632.24 1066.78 2484.53 1144.37 2434.88 1248.53C2411.26 1298.08 2371.4 1330.49 2339.19 1366.03C2261.44 1451.82 2174.39 1600.04 2068.94 1620.63C1854.36 1662.53 1736.35 1820.45 1527.31 1879.99C1607.92 1527.42 1195.09 1531.5 1139.35 1552.23C1075.23 1576.08 1052.55 1668.53 1031.13 1766.78C1027.82 1781.94 1037.23 1800.86 1043.09 1817.4C1081.52 1925.86 1177.24 2057.68 1243.3 2131.8Z" fill="url(#paint0_linear_467_1326)"/>
</g>
<defs>
<filter id="filter0_f_467_1326" x="0.488647" y="0.933472" width="3980.35" height="3411.7" filterUnits="userSpaceOnUse" color-interpolation-filters="sRGB">
<feFlood flood-opacity="0" result="BackgroundImageFix"/>
<feBlend mode="normal" in="SourceGraphic" in2="BackgroundImageFix" result="shape"/>
<feGaussianBlur stdDeviation="514.976" result="effect1_foregroundBlur_467_1326"/>
</filter>
<linearGradient id="paint0_linear_467_1326" x1="2773.56" y1="1096.57" x2="1019.02" y2="1755.16" gradientUnits="userSpaceOnUse">
<stop stop-color="#75F0F8"/>
<stop offset="0.460924" stop-color="#90A0FF"/>
</linearGradient>
</defs>
</svg>
