<svg width="1920" height="544" viewBox="0 0 1920 544" fill="none" xmlns="http://www.w3.org/2000/svg">
<g clip-path="url(#clip0_468_2133)">
<g filter="url(#filter0_f_468_2133)">
<path d="M-753.222 451.561C-640.365 656.236 -650.401 771.387 -494.448 774.923C-452.771 803.586 -408.855 836.677 -366.644 867.511C-330.9 893.621 -302.864 940.541 -262.868 956.705C-179.139 990.542 -96.1623 990.134 -12.465 1026.68C292.213 1159.72 619.693 1153.69 921.789 1144.88C1111.17 1139.36 1310.32 1125.17 1494.1 1077.93L1498.57 1076.79C1585.73 1054.4 1685.57 1028.76 1761.97 963.881C1928.71 822.288 2099.58 614.367 2190.05 330.623C2308.66 -41.357 2379.43 -813.195 2059.95 -781.655C1900.79 -765.943 1631.76 -694.478 1512.39 -543.467C1455.6 -471.615 1378.76 -433.683 1313.19 -387.813C1154.92 -277.089 958.391 -68.2642 779.23 -73.8596C414.676 -85.245 164.178 127.88 -197.917 147.254C63.8917 -396.352 -609.122 -542.747 -707.462 -529.684C-820.598 -514.654 -891.757 -372.686 -963.025 -220.822C-974.027 -197.378 -965.729 -163.125 -962.327 -134.047C-940.025 56.6142 -833.2 306.516 -753.222 451.561Z" fill="url(#paint0_linear_468_2133)"/>
</g>
<path d="M524.53 342.4C514.53 342.4 505.463 340.733 497.33 337.4C489.33 333.933 482.996 328.867 478.33 322.2C473.663 315.533 471.13 307.333 470.73 297.6H502.73C502.863 301.467 503.863 304.867 505.73 307.8C507.596 310.733 510.13 313.067 513.33 314.8C516.53 316.4 520.263 317.2 524.53 317.2C528.13 317.2 531.263 316.667 533.93 315.6C536.73 314.4 538.93 312.733 540.53 310.6C542.13 308.333 542.93 305.533 542.93 302.2C542.93 298.733 541.996 295.8 540.13 293.4C538.263 290.867 535.73 288.733 532.53 287C529.33 285.133 525.596 283.467 521.33 282C517.196 280.4 512.73 278.867 507.93 277.4C496.863 273.8 488.33 268.933 482.33 262.8C476.463 256.667 473.53 248.467 473.53 238.2C473.53 229.667 475.596 222.4 479.73 216.4C483.996 210.267 489.796 205.6 497.13 202.4C504.463 199.2 512.796 197.6 522.13 197.6C531.73 197.6 540.196 199.267 547.53 202.6C554.863 205.8 560.663 210.533 564.93 216.8C569.196 222.933 571.463 230.267 571.73 238.8H539.53C539.396 235.867 538.53 233.2 536.93 230.8C535.463 228.4 533.396 226.467 530.73 225C528.196 223.533 525.196 222.8 521.73 222.8C518.663 222.667 515.863 223.133 513.33 224.2C510.93 225.133 508.93 226.667 507.33 228.8C505.863 230.8 505.13 233.333 505.13 236.4C505.13 239.333 505.863 241.933 507.33 244.2C508.93 246.333 511.063 248.2 513.73 249.8C516.53 251.267 519.73 252.667 523.33 254C527.063 255.333 531.13 256.667 535.53 258C542.596 260.4 549.063 263.267 554.93 266.6C560.93 269.8 565.73 274.067 569.33 279.4C573.063 284.6 574.93 291.533 574.93 300.2C574.93 307.8 572.93 314.8 568.93 321.2C565.063 327.6 559.396 332.733 551.93 336.6C544.596 340.467 535.463 342.4 524.53 342.4ZM646.795 342.4C636.395 342.4 627.262 340.267 619.395 336C611.529 331.6 605.329 325.533 600.795 317.8C596.395 309.933 594.195 300.933 594.195 290.8C594.195 280.4 596.395 271.133 600.795 263C605.195 254.867 611.329 248.467 619.195 243.8C627.062 239.133 636.195 236.8 646.595 236.8C656.729 236.8 665.595 239 673.195 243.4C680.795 247.8 686.729 253.8 690.995 261.4C695.395 268.867 697.595 277.533 697.595 287.4C697.595 288.733 697.529 290.267 697.395 292C697.395 293.6 697.262 295.267 696.995 297H615.595V279.6H666.995C666.729 274 664.662 269.533 660.795 266.2C657.062 262.733 652.395 261 646.795 261C642.529 261 638.662 262 635.195 264C631.729 266 628.929 269 626.795 273C624.795 277 623.795 282.067 623.795 288.2V294.2C623.795 298.867 624.662 303 626.395 306.6C628.262 310.2 630.862 313 634.195 315C637.662 317 641.729 318 646.395 318C650.795 318 654.395 317.133 657.195 315.4C660.129 313.533 662.395 311.2 663.995 308.4H694.595C692.729 314.8 689.529 320.6 684.995 325.8C680.462 330.867 674.929 334.933 668.395 338C661.862 340.933 654.662 342.4 646.795 342.4ZM769.456 342.4C759.056 342.4 749.856 340.133 741.856 335.6C733.99 331.067 727.79 324.867 723.256 317C718.856 309.133 716.656 300.133 716.656 290C716.656 279.6 718.856 270.467 723.256 262.6C727.79 254.6 733.99 248.333 741.856 243.8C749.856 239.133 759.056 236.8 769.456 236.8C782.656 236.8 793.723 240.267 802.656 247.2C811.723 254.133 817.456 263.8 819.856 276.2H788.056C786.856 271.933 784.59 268.6 781.256 266.2C777.923 263.8 773.923 262.6 769.256 262.6C764.856 262.6 760.99 263.733 757.656 266C754.456 268.133 751.923 271.267 750.056 275.4C748.19 279.4 747.256 284.133 747.256 289.6C747.256 293.733 747.79 297.467 748.856 300.8C749.923 304.133 751.39 307 753.256 309.4C755.256 311.8 757.59 313.667 760.256 315C762.923 316.2 765.923 316.8 769.256 316.8C772.456 316.8 775.256 316.267 777.656 315.2C780.19 314.133 782.323 312.6 784.056 310.6C785.923 308.6 787.256 306.133 788.056 303.2H819.856C817.456 315.2 811.723 324.733 802.656 331.8C793.59 338.867 782.523 342.4 769.456 342.4ZM881.094 342.4C872.694 342.4 865.56 340.667 859.694 337.2C853.96 333.733 849.56 328.667 846.494 322C843.56 315.2 842.094 306.933 842.094 297.2V239.2H872.094V294.2C872.094 301.667 873.627 307.4 876.694 311.4C879.76 315.267 884.694 317.2 891.494 317.2C895.627 317.2 899.294 316.267 902.494 314.4C905.827 312.533 908.36 309.8 910.094 306.2C911.96 302.6 912.894 298.2 912.894 293V239.2H942.894V340H916.694L914.294 324C911.36 329.467 907.094 333.933 901.494 337.4C895.894 340.733 889.094 342.4 881.094 342.4ZM968.875 340V239.2H995.475L998.275 257.6C1000.94 253.333 1004.08 249.667 1007.68 246.6C1011.28 243.533 1015.41 241.133 1020.08 239.4C1024.88 237.667 1030.01 236.8 1035.48 236.8V268.6H1025.48C1021.48 268.6 1017.81 269.067 1014.48 270C1011.28 270.8 1008.48 272.2 1006.08 274.2C1003.81 276.2 1002.01 278.933 1000.68 282.4C999.475 285.733 998.875 289.933 998.875 295V340H968.875ZM1101.68 342.4C1091.28 342.4 1082.14 340.267 1074.28 336C1066.41 331.6 1060.21 325.533 1055.68 317.8C1051.28 309.933 1049.08 300.933 1049.08 290.8C1049.08 280.4 1051.28 271.133 1055.68 263C1060.08 254.867 1066.21 248.467 1074.08 243.8C1081.94 239.133 1091.08 236.8 1101.48 236.8C1111.61 236.8 1120.48 239 1128.08 243.4C1135.68 247.8 1141.61 253.8 1145.88 261.4C1150.28 268.867 1152.48 277.533 1152.48 287.4C1152.48 288.733 1152.41 290.267 1152.28 292C1152.28 293.6 1152.14 295.267 1151.88 297H1070.48V279.6H1121.88C1121.61 274 1119.54 269.533 1115.68 266.2C1111.94 262.733 1107.28 261 1101.68 261C1097.41 261 1093.54 262 1090.08 264C1086.61 266 1083.81 269 1081.68 273C1079.68 277 1078.68 282.067 1078.68 288.2V294.2C1078.68 298.867 1079.54 303 1081.28 306.6C1083.14 310.2 1085.74 313 1089.08 315C1092.54 317 1096.61 318 1101.28 318C1105.68 318 1109.28 317.133 1112.08 315.4C1115.01 313.533 1117.28 311.2 1118.88 308.4H1149.48C1147.61 314.8 1144.41 320.6 1139.88 325.8C1135.34 330.867 1129.81 334.933 1123.28 338C1116.74 340.933 1109.54 342.4 1101.68 342.4ZM1174.94 340V200H1210.94L1251.74 284.2L1292.14 200H1327.94V340H1297.94V250.6L1263.54 320.4H1239.54L1204.94 250.6V340H1174.94ZM1354.82 340V200H1448.62V224.2H1384.82V257.2H1442.62V280.4H1384.82V315.8H1448.62V340H1354.82Z" fill="white"/>
</g>
<rect x="0.5" y="0.5" width="1919" height="543" rx="134.5" stroke="black"/>
<defs>
<filter id="filter0_f_468_2133" x="-1998.49" y="-1812.55" width="5318.49" height="3991.36" filterUnits="userSpaceOnUse" color-interpolation-filters="sRGB">
<feFlood flood-opacity="0" result="BackgroundImageFix"/>
<feBlend mode="normal" in="SourceGraphic" in2="BackgroundImageFix" result="shape"/>
<feGaussianBlur stdDeviation="514.976" result="effect1_foregroundBlur_468_2133"/>
</filter>
<linearGradient id="paint0_linear_468_2133" x1="2119.61" y1="-665.095" x2="-978.413" y2="-244.204" gradientUnits="userSpaceOnUse">
<stop stop-color="#75F0F8"/>
<stop offset="0.460924" stop-color="#90A0FF"/>
</linearGradient>
<clipPath id="clip0_468_2133">
<rect width="1920" height="544" rx="135" fill="white"/>
</clipPath>
</defs>
</svg>
